User Type,Username,Date,Text
[T],.SceNe.,2013-04-04T09:36Z,"Screens
http://store.picbg.net/pubpic/14/06/bafb0d0ba8711406.png
http://store.picbg.net/pubpic/34/D4/f79b3dc3407234d4.png
http://store.picbg.net/pubpic/BE/D5/9a05a449a927bed5.png
http://store.picbg.net/pubpic/46/F6/0d693b607a4c46f6.png"
,FBIOBSERVER,2013-04-04T13:04Z,"Nice job,Thank you"
,vivatpb5776,2013-04-13T16:41Z,"For those that care, this is a two-channel release. Here is the mediainfo:

General
Complete name                    : G:QCMoviesGangster.Squad.2013.720p.WEBRiP.XViD.AC3-LEGi0NGangster.Squad.2013.720p.WEBRiP.XViD.AC3-LEGi0N.avi
Format                           : AVI
Format/Info                      : Audio Video Interleave
Format profile                   : OpenDML
File size                        : 3.07 GiB
Duration                         : 1h 52mn
Overall bit rate                 : 3 896 Kbps
Writing application              : VirtualDubMod 1.5.10.2 (build 2540/release)
Writing library                  : VirtualDubMod build 2540/release

Video
ID                               : 0
Format                           : MPEG-4 Visual
Format profile                   : Advanced Simple@L5
Format settings, BVOP            : 2
Format settings, QPel            : No
Format settings, GMC             : No warppoints
Format settings, Matrix          : Default (H.263)
Codec ID                         : XVID
Codec ID/Hint                    : XviD
Duration                         : 1h 52mn
Bit rate                         : 3 501 Kbps
Width                            : 1 280 pixels
Height                           : 528 pixels
Display aspect ratio             : 2.40:1
Frame rate                       : 23.976 fps
Color space                      : YUV
Chroma subsampling               : 4:2:0
Bit depth                        : 8 bits
Scan type                        : Progressive
Compression mode                 : Lossy
Bits/(Pixel*Frame)               : 0.216
Stream size                      : 2.76 GiB (90%)
Writing library                  : XviD 1.2.1 (UTC 2008-12-04)

Audio
ID                               : 1
Format                           : AC-3
Format/Info                      : Audio Coding 3
Mode extension                   : CM (complete main)
Codec ID                         : 2000
Duration                         : 1h 52mn
Bit rate mode                    : Constant
Bit rate                         : 384 Kbps
Channel(s)                       : 2 channels
Channel positions                : Front: L R
Sampling rate                    : 48.0 KHz
Bit depth                        : 16 bits
Compression mode                 : Lossy
Stream size                      : 310 MiB (10%)
Alignment                        : Split accross interleaves
Interleave, duration             : 42 ms (1.00 video frame)
Interleave, preload duration     : 500 ms"
